<?xml version="1.0" standalone="no"?>
<!DOCTYPE svg PUBLIC "-//W3C//DTD SVG 20010904//EN"
 "http://www.w3.org/TR/2001/REC-SVG-20010904/DTD/svg10.dtd">
<svg version="1.0" xmlns="http://www.w3.org/2000/svg"
 width="520.000000pt" height="520.000000pt" viewBox="0 0 520.000000 520.000000"
 preserveAspectRatio="xMidYMid meet">
<metadata>
Created by potrace 1.14, written by Peter Selinger 2001-2017
</metadata>
<g transform="translate(0.000000,520.000000) scale(0.100000,-0.100000)"
fill="#000000" stroke="none">
<path d="M0 2600 l0 -2600 2600 0 2600 0 0 2600 0 2600 -2600 0 -2600 0 0
-2600z m4624 1663 c-163 -704 -430 -1387 -748 -1917 -165 -274 -319 -477 -516
-680 -408 -420 -828 -639 -1354 -707 -141 -18 -335 -7 -429 23 -42 14 -80 22
-83 17 -3 -5 -46 -107 -95 -226 -49 -120 -94 -222 -99 -227 -8 -8 -363 106
-382 123 -12 11 235 610 360 872 478 1002 1139 1560 2187 1845 114 31 118 33
68 33 -29 1 -105 -6 -170 -14 -751 -99 -1432 -427 -1877 -906 -229 -246 -427
-559 -545 -864 -24 -60 -45 -112 -46 -114 -6 -5 -67 67 -132 158 -169 232
-251 489 -224 695 32 236 137 481 306 712 79 108 280 305 395 386 112 79 307
182 440 231 214 80 445 123 1325 248 1024 145 1415 249 1589 423 34 34 62 58
64 54 2 -3 -13 -78 -34 -165z"/>
</g>
</svg>
